<?xml version="1.0" encoding="UTF-8"?>
<svg width="60px" height="26px" viewBox="0 0 60 26" version="1.1" xmlns="http://www.w3.org/2000/svg" xmlns:xlink="http://www.w3.org/1999/xlink">
    <!-- Generator: Sketch 42 (36781) - http://www.bohemiancoding.com/sketch -->
    <title>Artboard 8</title>
    <desc>Created with Sketch.</desc>
    <defs></defs>
    <g id="Page-1" stroke="none" stroke-width="1" fill="none" fill-rule="evenodd">
        <g id="Artboard-8">
            <path d="M39,13.624848 C39,13.624848 42.8821647,9.86592662 47.4421676,13.624848" id="Path-9" stroke="#a7a7a7" stroke-width="2" transform="translate(43.221084, 12.789532) rotate(90.000000) translate(-43.221084, -12.789532) "></path>
            <path d="M41.4586195,14.4202161 C41.4586195,14.4202161 48.2547634,7.8398227 56.2375357,14.4202161" id="Path-9" stroke="#a7a7a7" stroke-width="2" transform="translate(48.848078, 12.957906) rotate(90.000000) translate(-48.848078, -12.957906) "></path>
            <path d="M44.0185298,15.0643136 C44.0185298,15.0643136 53.6125116,5.77490256 64.8816332,15.0643136" id="Path-9" stroke="#a7a7a7" stroke-width="2" transform="translate(54.450081, 13.000000) rotate(90.000000) translate(-54.450081, -13.000000) "></path>
            <g id="noun_174_cc" transform="translate(20.000000, 13.500000) scale(-1, 1) translate(-20.000000, -13.500000) translate(1.000000, 1.000000)" fill-rule="nonzero" fill="#a7a7a7">
                <g id="Group">
                    <path d="M38,9.22584707 C38,8.98143315 37.86206,8.78255495 37.55046,8.78255495 C37.28446,8.78255495 36.94208,8.85961538 36.784,9.19159799 C36.3603,10.0871337 33.88498,10.4109432 28.92484,10.4109432 L24.26224,10.4109432 C5.77448,10.4109432 1.73318,5.95700549 1.73318,0.506341575 C1.73394,0.226900183 1.51202,0 1.23918,0 L0.49438,0 C0.22116,0 0,0.226900183 0,0.506341575 L0,23.6711767 C0,23.9510073 0.22116,24.1775183 0.49438,24.1775183 L1.23918,24.1775183 C1.51202,24.1775183 1.73394,23.9510073 1.73394,23.6711767 C1.73394,20.2310897 3.33222,17.1475046 9.17928,15.4113095 C9.46048,15.3276328 9.57866,15.4521749 9.38068,15.8269689 C9.08276,16.3920788 8.93152,16.9922161 8.93152,17.6102564 C8.93152,21.2912546 14.49434,24.2763736 21.356,24.2763736 C28.2188,24.2763736 33.78162,21.2912546 33.78162,17.6102564 C33.78162,16.3951923 33.1683,15.2645833 32.1176,14.2744734 C31.86566,14.0382326 31.92,13.8214515 32.22286,13.8323489 C35.00826,13.9378205 36.4667,14.3172848 36.78362,14.9863095 C36.9417,15.3175137 37.2837,15.3957418 37.55008,15.3957418 C37.8613,15.3957418 37.99962,15.1960852 37.99962,14.9516712 C38,13.4384844 38,11.5625687 38,9.22584707 Z M21.34916,21.7746337 C16.12036,21.7746337 11.8902,19.9664377 11.8902,17.6106456 C11.8902,16.0188416 13.32888,14.2674679 19.47538,13.8471383 C20.22436,13.7961538 22.58226,13.7560668 23.27196,13.7455586 C26.66878,13.6945742 30.80698,15.0190018 30.80698,17.6106456 C30.80698,19.9668269 26.5772,21.7746337 21.34916,21.7746337 Z" id="Shape"></path>
                </g>
            </g>
        </g>
    </g>
</svg>
