<?xml version="1.0" standalone="no"?>
<!DOCTYPE svg PUBLIC "-//W3C//DTD SVG 20010904//EN"
 "http://www.w3.org/TR/2001/REC-SVG-20010904/DTD/svg10.dtd">
<svg version="1.0" xmlns="http://www.w3.org/2000/svg"
 width="2400.000000pt" height="2400.000000pt" viewBox="0 0 2400.000000 2400.000000"
 preserveAspectRatio="xMidYMid meet">
<metadata>
Created by potrace 1.11, written by Peter Selinger 2001-2013
</metadata>
<g transform="translate(0.000000,2400.000000) scale(0.100000,-0.100000)"
fill="#000000" stroke="none">
<path d="M0 12000 l0 -12000 12000 0 12000 0 0 12000 0 12000 -12000 0 -12000
0 0 -12000z m7067 6130 c102 -45 185 -143 229 -269 17 -50 88 -527 284 -1921
143 -1020 266 -1871 272 -1890 29 -92 87 -163 167 -202 37 -18 62 -23 126 -22
l80 0 1735 691 c1013 403 1766 698 1810 708 100 23 294 30 401 16 162 -22 -88
74 2459 -942 l1185 -472 85 -1 c74 -1 92 3 136 26 28 15 66 44 84 64 75 86 58
-11 339 1989 149 1062 269 1882 281 1925 52 187 197 322 345 323 143 1 286
-122 344 -295 14 -43 106 -665 281 -1913 144 -1017 266 -1868 271 -1890 35
-129 136 -219 263 -232 30 -3 76 0 102 6 25 7 832 324 1791 706 1184 471 1766
698 1811 706 176 31 352 -33 416 -151 64 -118 35 -281 -75 -419 -26 -34 -519
-428 -1525 -1217 -1594 -1252 -1537 -1204 -1565 -1317 -23 -95 6 -202 75 -276
17 -18 688 -550 1491 -1181 804 -631 1481 -1170 1506 -1197 52 -59 93 -136
114 -218 40 -156 -6 -290 -127 -369 -79 -52 -153 -69 -267 -64 l-96 5 -1750
702 c-1904 765 -1811 731 -1927 697 -100 -29 -184 -126 -208 -243 -5 -27 -120
-880 -255 -1898 -135 -1017 -252 -1871 -261 -1897 -50 -152 -198 -283 -347
-308 -201 -32 -416 120 -471 334 -9 34 -126 894 -261 1911 -135 1018 -252
1873 -261 1901 -22 71 -79 141 -144 178 -50 28 -63 31 -140 31 l-85 0 -960
-386 c-528 -212 -1297 -521 -1710 -687 -412 -166 -777 -308 -810 -317 -33 -8
-111 -21 -173 -27 -124 -13 -285 -2 -397 28 -33 9 -821 321 -1751 694 -930
373 -1709 683 -1730 689 -93 26 -196 3 -267 -59 -58 -52 -83 -92 -101 -166 -9
-32 -126 -894 -261 -1914 -164 -1233 -253 -1873 -265 -1908 -71 -203 -276
-336 -464 -303 -157 28 -301 156 -349 312 -9 30 -129 898 -266 1929 -153 1145
-256 1894 -267 1925 -12 34 -36 68 -74 107 -69 69 -138 94 -232 84 -45 -4
-442 -160 -1801 -705 -1313 -527 -1760 -703 -1812 -711 -177 -28 -354 49 -420
184 -71 146 -19 360 123 498 31 30 382 310 780 622 1560 1223 2158 1695 2189
1727 18 19 44 60 59 93 23 51 26 68 22 130 -6 84 -31 140 -91 199 -24 23 -698
556 -1499 1185 -801 628 -1475 1163 -1497 1190 -110 128 -149 309 -91 422 69
135 268 203 460 157 30 -8 372 -140 760 -295 2180 -869 2751 -1095 2804 -1109
103 -26 205 0 280 73 36 35 78 107 89 154 3 14 123 858 266 1875 167 1183 268
1873 281 1915 12 36 41 95 65 131 106 157 250 212 392 149z"/>
<path d="M11862 14371 c-34 -10 -84 -32 -110 -48 -75 -47 -2593 -2030 -2636
-2076 -57 -63 -78 -111 -84 -195 -4 -66 -2 -78 26 -135 17 -34 48 -78 69 -98
48 -46 2552 -1972 2613 -2011 146 -91 364 -100 522 -23 29 14 321 232 648 483
327 252 905 696 1285 987 379 292 707 547 728 569 92 90 118 228 64 337 -14
30 -48 75 -74 100 -26 26 -311 253 -633 506 -322 253 -893 702 -1270 998 -377
297 -708 552 -735 567 -109 59 -284 75 -413 39z"/>
</g>
</svg>
